<svg xmlns="http://www.w3.org/2000/svg" width="532" height="532" stroke="#000"  stroke-linecap="round" stroke-linejoin="round">

<circle cx="266" cy="266" r="266" fill="#fedf03" />

<path d="M261 169h-2l-.5-2.2-.2-1-.2-1.8-.1-4v-5l-.3-2-.3-.8-1-1.4-.7-.5h-1.4l-.7.5-.6.6-.4.8-.5 1.8v3l-.1 5v17l-.2 1-.3 1.8v.5l-.5 1.7h-2l-.5-2.2-.2-1-.2-1.7v-1.4l-.1-1.7h-6v11l.2 2 .2 1 .2 1 .8 2a22 22 0 0 0 2.2 4l1.6 2 .9 1 2.8 3c.8 1 1.5 1.9 2 3l.8 2 .2 1v3l.1 1.8v2.2h25v-6l.3-2 .7-2c.5-1 1.3-2 2-3l2.2-3 1.8-3 .4-1 .4-1 .3-1 .4-2 .4-3 .1-3v-25l-.1-1-.5-1.8-.4-.8-.6-.6-.7-.5h-1.4l-1.3 1-.4.9-.3.9-.2 1v1l-.1 1.9v5l-.3 1.8-.2 1v.5l-.5 1.7h-2l-.4-1.7-.1-.5-.2-1-.2-1.8-.1-4v-9l-.1-1-.2-1-.3-.8-.4-.8-.6-.6-1.4-.6-1.4.6-.6.6-.4.8-.3.9-.2 1v1l-.1 1.9v5c0 1.3-.1 2.6-.3 3.8l-.3 1.5-.4 1.7h-2l-.4-1.7-.1-.5-.2-1-.2-1.8-.1-4v-9l-.1-1-.2-1-.3-.8-.4-.8-.6-.6-1.4-.6-1.4.6-.6.6-.4.8-.3.9-.2 1v1.9l-.1 3v9l-.3 1.8-.2 1v.5l-.5 1.7m-57 3v-12h-2.2l-1 .1-1.8.3-1 .3-1.8 1-1.4 1.5-.6 1-.4 1.8.3 2 .5.9.7.8.9.7 1.8 1 2 .5h.8l3.2.1m5-12v12h5v-12h-5m9 0v12h30v-12h-30m74 0v12h36l.3-1.7.1-.5.3-1 .2-.8.2-2-.2-2-.2-.8-.3-1-.1-.5-.3-1.7h-36m42 0-1.2 2-.3.5-.5 1.5 1 1h2l-1 1.6-.7 1.4-.4.9-.3.5-.6 1.6 1 1 1.7-.5.5-.2 1-.4 1.8-1 3.3-1.9 1.7-1v-2l-1.7-.9-.5-.3-1-.6-2.6-1.6-1-.6-.5-.3-1.7-.7z" transform="translate(0,3)" style="fill:none;stroke-width:3"/>

<path d="m310 239-1.8-1-.8-.6-.8-1.5-.5-2v-1l-.1-2.9v-10l-2.1-.2h-1l-1.3.9-1 1.5-.5 1.8v1l-.1 4v5c0 1.3 0 2.7.2 4l.3 2 .4 2 .7 2 .8 2 .6 1 1.4 2 2.6 3 1 1 1.7 2 .7 1 1 2c.6 1.6.6 3.3.6 5v5h26v-7l.1-1 .2-1 .7-2c.8-1.8 2.1-3.3 3.2-5l1.3-2 1-2 .4-1 .6-2 .3-2 .1-1v-1l.1-2v-29l-.1-2-.5-1.7-.4-.6-.5-.5-.7-.3h-.6l-1.2.8-.4.6-.3.9-.2.9v2l-.1 2.9v9l-.1 1-.2 1-.3.8-.4.7-1.2.9-1.3-.3-.5-.6-.4-.7-.3-.9-.2-1v-1l-.1-1.9v-20l-.1-2-.2-.8-.7-1.5-1.3-.8h-.7l-.7.3-1.3 1.1-.4.9-.5 1.8-.1 5v20l-1.8-1-.8-.6-.8-1.5-.5-2V217l-.1-4v-19l-.1-4-.2-.8-.3-.9-1-1.1-.6-.3h-.6l-.7.3-.9 1.1-.5 1.8v1l-.1 2.9v24l-.1 1-.2 1-.3.8-.4.7-1.2.9-1.3-.3-.5-.6-.4-.7-.3-.9-.2-1v-1l-.1-1.9v-17l-.1-1-.2-.8c-.2-.8-.6-1.6-1.3-2l-.7-.3h-.7l-.7.3-1.3 1.1-.4.9-.5 1.8-.1 5v35z" style="fill:none;stroke-width:3"/>
<path d="m 205.929 211.265 v 24.735 c 0.071 1.7 0.071 3.3 -0.229 5 c -0.2 1.1 -0.5 2.2 -1 3.3 l -0.708 1.238 l -1.298 -0.127 l -0.664 -1.266 l -0.538 -1.044 l -0.192 -2.101 l -0.2 -2 l -0.1 -3 c 0 -6.321 -0.115 -18.47 -0.472 -18.744 l -0.959 -0.466 h -3.199 l -0.87 1.41 l -0.2 1 l -0.2 1.8 v 1 l -0.1 4 v 35 l -1.8 -1 l -0.8 -0.6 l -0.8 -1.5 l -0.5 -2 v -2.9 l -0.1 -4 v -3 l -0.1 -1 l -0.2 -0.8 l -0.3 -0.9 l -1 -1.1 l -0.6 -0.3 h -0.6 l -0.7 0.3 l -0.5 0.5 l -0.7 1.5 l -0.2 0.9 v 2.9 l -0.1 6 v 5 c 0 1.3 0 2.7 0.2 4 c 0.2 1 0.4 2 0.8 3 c 0.6 1.4 1.4 2.7 2.2 4 l 3 4 l 1.7 2 l 0.8 1 l 1.3 2 l 0.7 2 l 0.2 1 v 3 l 0.1 1.8 v 2.2 h 26 v -4 l 0.1 -3 l 0.2 -1 l 0.6 -2 c 0.7 -1.4 1.6 -2.7 2.5 -4 l 0.7 -1 l 1.3 -2 l 1 -2 l 0.8 -2 c 0.5 -1.6 0.8 -3.3 1 -5 l 0.5 -3 l 0.1 -1 l 0.2 -2 v -26 l -0.1 -1 l -0.2 -0.9 l -0.3 -0.8 l -1 -1.2 l -1.4 -0.5 l -0.7 0.2 l -0.7 0.3 l -0.6 0.5 l -0.4 0.7 l -0.5 1.8 v 2 l -0.1 1.9 v 9 l -0.1 1 l -0.2 1 l -0.3 0.8 l -0.4 0.7 l -1.09 0.634 l -1.41 -0.034 l -0.5 -0.6 l -0.4 -0.7 l -0.3 -0.9 l -0.2 -1 v -2.9 l -0.1 -3 v -19.106 l -0.565 -1.303 l -1.414 -0.665 l -1.69 0.166 l -1.031 2.008 l -0.2 2 l -0.1 3.9 v 16 l -0.3 1.8 l -0.525 1.992 l -0.317 1.139 h -1.519 l -0.538 -0.728 l -0.301 -1.403 l -0.3 -1.8 l -0.2 -2 v -27 l -0.3 -1.9 l -0.3 -0.8 l -0.4 -0.7 l -0.6 -0.6 l -1.4 -0.7 l -0.9 -0.2 h -0.528 l -1.31 1.023 z" style="fill:none;stroke-width:3"/>

<rect x="190" y="292" width="40" height="30" fill="none" stroke-width="3" stroke-dasharray="70,40"/>
<rect x="245" y="222" width="40" height="100" fill="none" stroke-width="3" stroke-dasharray="140,40"/>
<rect x="305" y="270" width="40" height="50" fill="none" stroke-width="3" stroke-dasharray="90,40"/>

<circle cx="200" cy="304" r="2"  />
<circle cx="255" cy="230" r="2"  />
<circle cx="315" cy="282" r="2"  />

<text x="200" y="380" font-size="54" font-weight="300">बराबरी</text>
<text x="220" y="425" font-size="22" font-weight="300">PROJECT</text>
</svg>