<svg xmlns="http://www.w3.org/2000/svg" viewBox="0 0 800 600"><path d="M314 30h1v1h1l1-1h2v2l-1 1v2l1 1 1 3v3h1v1l1 1 1 4 1 1 4 1h1l2 2 1 1h1l1 1 1 1v2l-2 1-1 1-2 1v2l1 2v1l1 2-1 4 1 1v1l2 1 1 2h1v1l1 1v-1h1l1 1h2l1 1v1h-1v4l1 1h1v2h1v2h-1v1l-2 2-1 1-1-1h-1v1h-1v2h-2l-1 1v-1h-1v-1l-2-1v-3h-2v1h-4l-1 1 1 1 1 1-1 1 1 2v1h1v2l2 2h1v1h1v1l-1 1v2h-1l1 1v1h1l1 1v1l-2 2h1v4h2v-1h2v-2h1l1 1h1v1h1v2h1v2l1 1h1v2l1-1v1h1v1h3l1-1 2 1v1h1l2 1v1h2l1 1v1h-1v1h1v2h2l2 1h1v1h2l1 1h1v1h1v1h1l2 1h1v1h-3v2h-1l-1 1v1h-1v1h-2v2l-1 1h-2v4l-1 1v1h-1v1h-1v1l1 1v3h-1v1h-1v1h-1v3h-1v2h1v1l1 1h2v1l1 1h2l1 1v-2h1v1h2v1l1 1h1v1h2v1h2v1h3v2l1 1 1 1h-1l1 1h1v-1h1v1l1 1 1 1h1v1h2v1h1l1 1h1l1-1h2v1h2l2 2 1 1 1 1h2l2-1h1v3l1 1 2 1h5v1h1v1h1v1h1v-1l1-1h-1v-1h4l2 1 2 1h1v-2h3l1-1h1v1h1v1-1l1 1 1 1 5 1v1h1v3h-1v1h1l2 1h1l1 1h1v1h1v1h3v2h3v-1h2l1-1h1l2 1v3l1 1h2l1-1h2l1 1h3v-1 1h2l1 1h1v1h1l1 1h4v-1l1-1h1l1-1v2h1v2h2v-1 1h1l1 1v-1h1v-1h2l1 1h1l1-1h1v1-1h2v-1l1 1v1h2v-1h1v-3l1-1v-1l1-1-1-1v-3h-1v-1l-1-1v-1h-1v-2l1-1v-5l1-1 1-1v-4h1l-1-1h-1v-1h1v-1 1l1-1h4l1-1h1v-1l1-1 1 1h1l1 1h1v7l-1 1v1h-1v1h1v2l1 1 1 1v1h-2v1h-1v1l2 1v3h1v-1l1 1v1l1-1v1h1v1h1v1h2v-1h2l1 1h3l1 1h-1v1h1v-1h1l1 1h1v-1h1v1l1-1h3l1-1v-1h2l1-1h1l1 1 2 1h14v-1h1v-1 1h1v1h4l1-1h1v1h1v-2l1 1h1l1-1v-3h-1v-4h1v-1l-1-3h-3l-1 1h-1v-1h-1v-1h-1v-1l-1-1 1-1v-2h4v1h3l1-1 1-1h2v-1l1 1v1-1h1l1-1v1l1-1h2v-1h1l1-1v-1l-1-1v-1l1-1h2l1-1 1-1h1v-1l2-1v-1l1-1v-1h1l1-1h1v-1l2-1h5l1-1 1-1h1v-1h2l1-1h1v-1h2v-1l1-1-1-1v-1h1l1-1h2v-1l1-1h2l1 1 1 1h-1l1 1 1-1 1 1h1v-1 1h1l1 1h2v1h1v-1l1-1h2v-1 1h2l-1-1h1v-1h2l1 1 1-2-1-1h8v2h2v-1h1v2h-1l-1 1h-1v2l2-1h1v1l2 1v1h1v2l1 1v2l-1 1-2 1h1l-1 1 1 1v1h1v-2l1-1h2l1 1 1 1 1 1v2h3l1-1 1 1h1v1l1 1h1v1l-1 1v1l1 1v3h-1v-1h-1v1h-1l-1 1v1h-1v1h-1l-1 1h-1v4l1 1 2 4h1v1l1 1h-3l-2-1-1-1h1v-1h-1v-1h-1v-1h-3v1h-3l-5 1-1 1h-1l-1 1v1l-1 1v1h-2l-1 1v1h-2v2h-1v-1l-1 1-1 1v1h-2l-1 1-1-1v1h-1v2h-1v1h-1l1 1v1h-1v3h1v3h1v1h-1v1h-1v1l-1 1 1 2-1 1-2 2v1h-1v1h-2v1h-1v1l-1 3v1h1l1 1h1v2l-1 1v2h-1v2l-1 1h-1v2l-1 1h-1v2l-1 1v1h-1v1l-1 2v4l-1 1v1h-2l-1-1h-1l-1-1-1 1v-1h-1l-1-1h-1l-1 1h-2l-1-1-1-1h-1v2h1v2l1 2v1l1 1-1 4v4l-1 1h1v1l-1 1v1h-2l-1-1-1 1 1 1v2l-1 1-1 1v2h1v3l1 1v3l-1 1h1l-1 1v-1h-2v2l-1 1h1v1h-2v1-1l-1-1-1-1-1-1h-1v3h-1l-1-1v-2h1l-1-6v-1h-1v-4h-1v-3h-1v-2l-1-3v-1h1v-3h-1v-2l-1-2v-2l-1 1v-1l-1-1v1h-1v1h-1l-1-1h-1v1l1 2v1l-1 1h-1v1h-1v1l-1 1v1l1 1v2l-1 1-1 1h-2v-1h-1v-3h-1v-1l-1-1v4h-1v-1l-1-3v-3h-1v-2h-1v-2h1l-1-1v-1h1v-3l1-1h1l1-1v-1l1-1 1 1h2v-3h1v2h1v-2h2v2l1-1v-3h1v-1h3v-3h1v-2l1-2v-3l1 1h1v1l1-1h1v-2h-2v-1h-1v-1h-2v-1h-1v-1h-7v1h-3v-1 1h-2l-3-1h-6l-2 1-1-1v1h-1v-1h-3l-2 1-2-1-3-1-3-1h-2v-8l-1-2 1-1v-3 1l-1-1v-2h-1v-1h-1v-1h-1v1h1-1v2h1-1v1h-1v1-1h-4v-1h-1v-1h-2v-2l-1-1v-1h1-1v-1h-1v-1h-2v2h1l1 1h1v1h-2l-1-1h-1v1h-1v-1h-2 1v-1l-1-1v-1h-1v-1h-2v-1h-1l-1-1h1l-1-1v1l-1 1v2h1v-1h1l1 1v1h-1v1h-1l-1 1v1l-1 1h-1l-1 1v3l-1 1v2h1v1l1-1h1l1 2h1l1 1v1l1 1h1v1h2v1l1-1h2v1l-1 1h1v1h1v1h2l-1 1v1h-1 1-9v3l-1 1v1l-1 1h-1v-1h-1v-1 1h-1v2h-1v2h-1v1h1v3h1l5 2 1 1v1h3v-1h1v1l1 1-1 1h-1v2h1v3l-1 1h-1v1h-1v4h1l1 1v1h2l-1 3v2h4v1l-1 1-1 1v2h1v2h1v2h-1l1 1v3l1 1v4l1 1v2-1 4h-1v1l-1-1v-1h-1v1h1v1h1v2l1 1v2h-2l-1-1v-2l-1 1v1h1v1h-2l1-1h-1v2h-1v-2h-1l1-3v-3h1v-1h-1v-1h1-1v3h-2 1v-5 2h-1v3l-1 2v1h1l1 1h-1v1-1 3h-1v1h-1v-1l1-1v-1l-1-1 1-1v-1l-1-1h1v-1h-1v3l-1 1h1v2h-2v-1l-1-1v1h1v1h-1v-3h-1l1 2v2h-1v-1h-1v-3l-1-2v-2l1-1h1l-1-1v-1l-1-1h-1v-1 1h-1v-1h-1v-3h-1v1h1v2l1 1h1l1 1 1 1h-1v1l-1 1h-1 1-1v1l-1 2-1 1-1 1-2 1h-2l-2 1h-1l-1 1h-3l-2 1-1 1-2 2-1 2v3l2 4v2l-1-1-1 1h2v1h-1 1v1l1-1-1 1-1 1-3 2v2h1v-1 1l-1 1h-1v1h1v-1l-1 1-1 1h-2v1l-1 1-1 1v1h-1l-1-1h-2v-2 2h2v1-1 1h1v1h1l-2 1-3 1h-2l-2 1h-2l-1 1h-2l-1 1h-2v-1h3v-3h-3l-1 1-1 1h-1v1h-1v2h-1v3-1h1v-1h1-1 1v-2l1 1 1-1h1v1h-2v1h1l4-2h-1l-1 1h-2v1l-1 1h-1l-1 1-2 2h-1l-2 2-2 2h-1v1h1v-1 1l-1 1v1h-1v1h-1l-1 2-2 2v1l-1 1h-1v1h-1 1l1-1-1 1-1 1-1 1-1 1-1 1v1l-5 2-3 2h-1v1l-1 1h-1v1l-1 1-1 2h-2 1v1h-1v1l-1 1h-2v1h-1v1h-2l-1 1h-2l-4 3-1 1-1 1-1 1v1l-1 1v1h2v-2 5l-1 1v1-1 1l-1 1h-1v1h-1v1h-3v1h-1l-2 1h-3v-1h-2l-1 1v-1h-2l-1 1v1l-1 1v3h-1v1l-1 1-1 1v2-1h-2v-4 1-1 3l-1 1v2h-1v-3h-1l-1-1v1h-2l-1 1h-2v1l-2 1v1l-1 1v3h-1v1l-1 1v2l-1 2v2l1 1v4h1v1l1 1h-1 1v1l-1 1 1 2h-1v2h-1l-1 1h1v-1h1v5l2 2v2h-1v1l1 1v2l1 1-1-1v-1l-1-1v-1l-1-1v2h-1l1-1h-1v1h-1v1h1v1h1v1h2v1h1v6h-1v5l-1 1v4l-1 1v1h-1v1h-1v1l-1 1h-1 2l-1 1h-1v2h-1v2l-1 1v2l-1 2v2l1 1v2h-1l-1 1h1v-1h1l1 1v18h-2l-2-1v1h3v1h-1l-3-1 1-1h-2v1h-2v-1 1h-2v2h-1v2h1v1h-1v1l-1 1-1 1v1h-1v1l-1 1v1h-1v4l2 1 1 1h-5v1h-2l-1 1h-3v1h-2l-2 2v1l-1 1v2l1-1v1h-1v1h-1v4h-1v2h-1l-3 2h-1v1h-2l-1 1h-1v1h-2l-2-1v-1h-2l-1-2h-1l-1-1-1-1-1-2-1-1h-1l-1-2-1-1v-1h-1l-1-1v-1h1-1v-1h2-1 1v-1l-1 1h-1v1-1 1h-1v-2l-1-1v-1 1h1v-1h-1v-2h-1v1l1 1-1-3-1-3-1-2v-5l-1-1h1v2h1l-1-1h1v3-3 1h1v4l-1 1v1h3v-1h-2l1-1h-1v-5l-1-1h-1v-3h-1v2h1-1l-1-2h1-1v-1h1v-1h1-1v-1 2h-1v-1l-1-2v-1l-1-1v-2h-1l-1-3v-1l-1-1v-1l-1-3-1-4v-1h-1v-2h-1l-1-1-1-3-2-3h-1l-1-1h2v-1 1h-2v-1h1l-1-1v2l-1-1h-1v-3l-1-1v-1h-1l-1-2v-2l-1-1-1-3v-1h-1v-1h2v-1l-1 1h-1l-1-4v-3h-1v-4 1-1l-1-1v-2h1v-1h-1v1-2l-1-2v-1l-1-1-1-1v-3h-1v-1h2-2v-3h-1v-2 1h1l-1-1v-1 1h-1v-1h1l-1-1v1l-1-1h1-1v-2h-1v1-1h-1l-1-1h2v-1h1-1v-1 1h-2v-1h-1v-2h-1v-1h-1l1-1-1-4h-2v-1h2v1-1l1 1v-1h-3v-1h1l1-1h-1l-1 1-1-1h1-1v-1l1-1h1-2v1-1l-1-1h1-1v-2l-1-1v-1h-1l-1-1v-1h-1v-2h1v-1l-1 1v1-2l-1-1v-3h-1v-2h1-1v-1h1v-1h-1v1-2l-1-1h1v-1h-1v-7l-1-1v-1 1h1v-1l-1-1h-1v-1h1l-1-1h1-1v-2h1-1v-1l-1-1h1v-1h-1v-2l-1-2v-2 1h-1v-3l-1-1v-1h1v1h1l1 1h-1 1v-1l-1-1h-1v-1h-1v-3h1v1h1-1v-2h-1l-1-1v-3h1v-1 1h1v1-1h1-1v-1h-1v-2h1l1-1h-1v-3 1h-1v2h-1v1l-1 1v-5 1-2h1-1v1-2l1-1v1h2l1 1v1-2h-3v-1h-1l-1-1v-2h2v-1 1h-1v-1h-1v1l-1-1 1-1-1-1v-1 1l1-1v-1l-1 1v-2h-1l1-1v-4h1v-4h1v-2h1v-1l1-1v-1h-1l1-1v-2h1-1v-1h-1l1-1h-1v1-2l1-1h-2v-1h-1 2l-1-2-1 1v-1 1h-1l1-1h-1v1h-1v-1l1-1h1l-1-1h-1v-1 1-1l-1-1h1-1v-1h2l1-1h-1l-1 1h-1l1-1v-1h1v-1h2v-1h2v-1h2l1-1h1v-1l-1 1h-2v1h-8v-1h1v-2l1-1v-1h1l1-1h-1l-1 1h-1v1l-1-1v-4h1v-1h2v1h1l1-1 1-1v1h1v-1h-7l-1 1v-1h-1v-2l-1 1v1h-1v-1h-1v1h-1 1v1h1l1 1v2h-1v1h-3v1-1 1h-1 1v1l1-1v2h-1v-1h-1 1v1h-2v1h4v2h1v2l-1 2-1 1v1l-1 1v2h-1l-1 1h-1l-2 1v1h-2l-1 1h-2 1-1l-1 1v1h-3l-3 2h-2v1h-5v-1l-3-1-1-1h-1v-1h-2v-1h-1l-2-2-1-1-2-2v-1h-1l-1-2h-1v-1l-1-1-2-2-1-1-1-1-1-1-1-1v-1 1h-1l-1-2h-1v-1l-1-1h-1v-1l-1-1-1-1v-1l-1-1h1v-2l1-1h1v1h-1l1 1v-1h2v1l-1 1 1 1h1l1-1h3v-2h1v1h2v-1h1v-1l1 1h1v-1h1l1-1h3l1-1v-1h1v-1l1-2 1-1v-1h1v-1h1v-1h1v-1l-1-1h-1v3h-1v1-1h-2v-1 1h-2v-1 2h-3l-1 1h-2v1h-1v1h-3v-1h-3l-1-1h-2l-1-1-2-1-3-1-3-2-1-1v-1h-1 1v-1h-2l1-1h1-1v-1l-1 1v-2 1h-1v-1h-1 1v-2 1h-1v-3l1 1h1v-1h-1 1v-1h1v-1h1v-1h2v-1h1-2v1h-1l-1 1h-2v1h-1l-1 2h-3v-1h2v-1 1h-1v-1h-1v-3h1v-1h1-1 2v-1 1l1-1h6v-7h1v2h1v-2h1v1l1 1v-1h2l1 1h1l1-1h6l1 2h7v-2h1l1-1h2l1-1h1l2-1 1 1h-1v2l1 1h4v-2h1l1-1 1 1v-1h1v-1h-1l-1-1h1v-1h-1v-1l1-1h1v-1l-1-2-1-2-1-1v-1l-1-2v-1l-1-1-1-1v-1l-1-1v-6h-2l-1 1h-2l-1-1h-1v-1l-1-1-1-1-1-1v-4l1-1v-8h-6l-2-1v-1l-3-1-1-1 1-3v-2l1-1v-2l2-1 1-1 2-2 1-2 2-1v-1l1-3v-1l2-1v-1h1l1-2h4v1h1v1h1v3l1 1h3l2-1 3-1h1l1-1h5l2-1 3-1v-3h1l1-2 2-2h1v-1l1-1 1-4v-1l1-2h1l2-1 3-1 2-1 2-2 1-1v-1l1-2 2-2 1-2 1-2v-3l1-2 1-3 3-1 3-1h1l3-3v-1l-1-1v-1h-1v-1h2v-1l1-1h1v-3h2v-2h1v-1l1-1v-1h2v-1h2v-1h1v-1l1-1h-2v-4l1-2v-3l-1-1-1-2v-1h1v-2h1l1-1 1-1h1l1-1v-1h3v-1h1-1 3v-1h2v-1l1-1v-2h-1l-1-1h-1l-1-1-1-1h-2l-1 1-1-1h-2l-1-1v-5h1v-1l-1-1v2h-6v-1l1-1-1-1v-2h-2l-1-1-1-1v-1h-1v-3h1v-1h1v-4l-1-1-1-1h-1v-3l1-1h2l1-1h1v-3h-6v-2l1-1h1v-1l-1-1v-1h-3v-2l1-1v-1l1-1v-2h1v-1h3l2-1 1-1h2l4 2 6 1h4v1h1l1 1 5 1h3l1-2h1l1-1 1-1 1 1h1l2-1 2-1 1-1 1 1h3l1-2v-2h4l1-1v-3l7-4 6-4zm55 380v1h1-2l-1-1h1v-1l1 1m137-105v1h-1v-2l1 1zm-14-3v-1l1-1v-1l1 2-1 1v2h-1l-1-1 1-1zm10-4v3h-1v-2l1-1zm-10 2v-2h1v1l-1 1"/></svg>