<svg xmlns="http://www.w3.org/2000/svg" viewBox="0 0 512 512" >

<rect x="0" y="0" width="100%" height="100%" fill="#fd0" /> 

<text x="15" y="300" fill="#000" font-size="128">बरा</text>
<text x="315" y="300" fill="#000" font-size="128">बरी</text>
<text x="137" y="350" fill="#000" font-weight="500" font-size="48">PROJECT</text>
<rect x="10" y="214" width="35%" height="13" fill="#fd0" />
<rect x="305" y="214" width="35%" height="13" fill="#fd0" />
<rect x="15" y="332" width="20%" height="8" fill="#000" />
<rect x="375" y="332" width="20%" height="8" fill="#000" />

<g transform="translate(80,110) scale(0.125)">
 <path d="M1699 714c8-4 12-9 14 6 2 16-18 138-25 152-5 8-23 109-34 133s-16 17-39 46c0 0-18 35-29 47s-21 22-23 29-13 144-8 181c0 39 0 137-3 151s-6 32-6 48c0 0 2 14-8 14l-502 3s-19 0 0-133c18-132 28-179 47-287 7-17-68-93-129-198-62-108-189-241-189-281s181-358 238-349c49 7 333 129 337 144 5 16-1 92-28 104-27 13-109 45-155 35 0 0-66-72-90-83 0 0-7 4 1 23 8 20-10 70-39 90 0 0-22 3-20 7s5 8 30 12c25 3 41 17 51 22 10 4 45 12 64 23s234 328 234 343-68 66-98 68c0 0-5 0 0 5s64-1 71 6c6 6 2 22 6 38 5 15 23 131 19 150 0 0-2 16 4 28 2 16 7 82 5 88s4 12 4 12 6-3 6-15c0-11-15-261-4-270 0 0 10-13 19-13s25-16 32-20c0 0 4-5-7-11s-32-19-41-60c-12-20-25-66-43-108s-13-36-13-36-96-115-125-153c0 0-16-22 0-21s142 28 160 35c19 7 53 5 82 40 32 29 57 56 68 60 0 0 9 6 12 15 4 8 10 8 14 3"/>
<path d="m1788 568-66-67c-10-10-33-25-45-13l-192 230c-12 12-13 30-3 40l52 55c11 10 29 10 41-2l210-203c12-11 13-29 3-40z"/>
  <path d="m1643 418-78-77a47 47 0 0 0-66 7l-179 256a47 47 0 0 0 8 66l84 40c20 16 50 12 66-8l173-218c16-21 12-50-8-66z"/>
  <path d="m1179 330-95-41c-10-7-35-19-38-30-4-13 21-34 29-46l74-115c14-22 43-29 65-15l80 52c12 8 27 18 29 31 1 11-8 24-15 34l-74 116c-14 21-33 27-55 14z"/>
  <path d="m1397 175 100 59c22 14 29 43 16 65l-69 116c-6 9-14 15-20 23-3 4-12 11-19 22-17 25-44 61-53 55-17-26 7-72 6-97-1-22-62-38-79-47-10-6-33-10-36-21-4-12 13-32 20-43l70-116c13-22 42-30 64-16z"/>
  <path d="M1331 543s5 0 0 9c-5 8-70 81-78 92s-11 14-16 12c-39-14-114-64-125-76-5-7-11-27 12-31 15-1 15 4 26 23s51 6 69 1"/>
</g>
</svg>